<?xml version="1.0" ?>
<!DOCTYPE svg  PUBLIC '-//W3C//DTD SVG 1.1//EN'  'http://www.w3.org/Graphics/SVG/1.1/DTD/svg11.dtd'>
<!-- Uploaded to: SVG Repo, www.svgrepo.com, Generator: SVG Repo Mixer Tools -->
<svg width="800px" height="800px" viewBox="0 0 512 512" enable-background="new 0 0 512 512" id="Layer_1" version="1.1" xml:space="preserve" xmlns="http://www.w3.org/2000/svg" xmlns:xlink="http://www.w3.org/1999/xlink">
<g>
<g>
<path d="M421.38,459.49H90.62c-5.523,0-10-4.478-10-10V62.51c0-5.522,4.477-10,10-10h330.76    c5.523,0,10,4.478,10,10v386.98C431.38,455.013,426.903,459.49,421.38,459.49z M100.62,439.49h310.76V72.51H100.62V439.49z" fill="#444B54"/>
</g>
<g>
<path d="M421.38,459.49H90.62c-5.523,0-10-4.478-10-10V323.043c0-5.522,4.477-10,10-10h330.76    c5.523,0,10,4.478,10,10V449.49C431.38,455.013,426.903,459.49,421.38,459.49z M100.62,439.49h310.76V333.043H100.62V439.49z" fill="#444B54"/>
</g>
<g>
<path d="M378.056,426.767H133.944c-5.523,0-10-4.478-10-10v-61c0-5.522,4.477-10,10-10h244.111    c5.523,0,10,4.478,10,10v61C388.056,422.289,383.579,426.767,378.056,426.767z M143.944,406.767h224.111v-41H143.944V406.767z" fill="#444B54"/>
</g>
<g>
<path d="M265.743,396.267H248.41c-5.523,0-10-4.478-10-10s4.477-10,10-10h17.333c5.523,0,10,4.478,10,10    S271.266,396.267,265.743,396.267z" fill="#444B54"/>
</g>
<g>
<path d="M265.743,128.472H90.62c-5.523,0-10-4.478-10-10V62.51c0-5.522,4.477-10,10-10h175.123    c5.523,0,10,4.478,10,10v55.962C275.743,123.994,271.266,128.472,265.743,128.472z M100.62,108.472h155.123V72.51H100.62V108.472z    " fill="#444B54"/>
</g>
<g>
<path d="M421.38,333.043H265.743c-5.523,0-10-4.478-10-10V62.51c0-5.522,4.477-10,10-10H421.38    c5.523,0,10,4.478,10,10v260.533C431.38,328.565,426.903,333.043,421.38,333.043z M275.743,313.043H411.38V72.51H275.743V313.043z    " fill="#444B54"/>
</g>
<g>
<path d="M299.351,216.175c-5.523,0-10-4.478-10-10v-21c0-5.522,4.477-10,10-10s10,4.478,10,10v21    C309.351,211.697,304.874,216.175,299.351,216.175z" fill="#444B54"/>
</g>
<g>
<path d="M184.351,100.491h-12.667c-5.523,0-10-4.478-10-10s4.477-10,10-10h12.667c5.523,0,10,4.478,10,10    S189.874,100.491,184.351,100.491z" fill="#444B54"/>
</g>
<g>
<path d="M126.48,178.045c-2.56,0-5.118-0.977-7.071-2.929c-3.905-3.905-3.905-10.237,0-14.143l18.537-18.536    c3.905-3.904,10.237-3.903,14.142,0c3.905,3.905,3.905,10.237,0,14.143l-18.537,18.536    C131.599,177.068,129.04,178.045,126.48,178.045z" fill="#444B54"/>
</g>
<g>
<path d="M133.351,207.843c-2.559,0-5.118-0.977-7.071-2.929c-3.905-3.905-3.906-10.237,0-14.143l48.333-48.334    c3.905-3.904,10.237-3.904,14.142,0c3.905,3.905,3.906,10.237,0,14.143l-48.333,48.334    C138.469,206.866,135.91,207.843,133.351,207.843z" fill="#444B54"/>
</g>
<g>
<rect fill="#65A0D6" height="386.98" width="330.76" x="90.62" y="62.51"/>
<path d="M421.38,459.49H90.62c-5.523,0-10-4.478-10-10V62.51c0-5.522,4.477-10,10-10h330.76    c5.523,0,10,4.478,10,10v386.98C431.38,455.013,426.903,459.49,421.38,459.49z M100.62,439.49h310.76V72.51H100.62V439.49z" fill="#444B54"/>
</g>
<g>
<rect fill="#3C74BA" height="126.447" width="330.76" x="90.62" y="323.043"/>
<path d="M421.38,459.49H90.62c-5.523,0-10-4.478-10-10V323.043c0-5.522,4.477-10,10-10h330.76    c5.523,0,10,4.478,10,10V449.49C431.38,455.013,426.903,459.49,421.38,459.49z M100.62,439.49h310.76V333.043H100.62V439.49z" fill="#444B54"/>
</g>
<g>
<rect fill="#D9DCE1" height="61" width="244.111" x="133.944" y="355.767"/>
<path d="M378.056,426.767H133.944c-5.523,0-10-4.478-10-10v-61c0-5.522,4.477-10,10-10h244.111    c5.523,0,10,4.478,10,10v61C388.056,422.289,383.579,426.767,378.056,426.767z M143.944,406.767h224.111v-41H143.944V406.767z" fill="#444B54"/>
</g>
<g>
<path d="M265.743,396.267H248.41c-5.523,0-10-4.478-10-10s4.477-10,10-10h17.333c5.523,0,10,4.478,10,10    S271.266,396.267,265.743,396.267z" fill="#444B54"/>
</g>
<g>
<rect fill="#D9DCE1" height="55.962" width="175.123" x="90.62" y="62.51"/>
<path d="M265.743,128.472H90.62c-5.523,0-10-4.478-10-10V62.51c0-5.522,4.477-10,10-10h175.123    c5.523,0,10,4.478,10,10v55.962C275.743,123.994,271.266,128.472,265.743,128.472z M100.62,108.472h155.123V72.51H100.62V108.472z    " fill="#444B54"/>
</g>
<g>
<rect fill="#D9DCE1" height="260.533" width="155.637" x="265.743" y="62.51"/>
<path d="M421.38,333.043H265.743c-5.523,0-10-4.478-10-10V62.51c0-5.522,4.477-10,10-10H421.38    c5.523,0,10,4.478,10,10v260.533C431.38,328.565,426.903,333.043,421.38,333.043z M275.743,313.043H411.38V72.51H275.743V313.043z    " fill="#444B54"/>
</g>
<g>
<path d="M299.351,216.175c-5.523,0-10-4.478-10-10v-21c0-5.522,4.477-10,10-10s10,4.478,10,10v21    C309.351,211.697,304.874,216.175,299.351,216.175z" fill="#444B54"/>
</g>
<g>
<path d="M184.351,100.491h-12.667c-5.523,0-10-4.478-10-10s4.477-10,10-10h12.667c5.523,0,10,4.478,10,10    S189.874,100.491,184.351,100.491z" fill="#444B54"/>
</g>
<g>
<path d="M126.48,178.045c-2.56,0-5.118-0.977-7.071-2.929c-3.905-3.905-3.905-10.237,0-14.143l18.537-18.536    c3.905-3.904,10.237-3.903,14.142,0c3.905,3.905,3.905,10.237,0,14.143l-18.537,18.536    C131.599,177.068,129.04,178.045,126.48,178.045z" fill="#444B54"/>
</g>
<g>
<path d="M133.351,207.843c-2.559,0-5.118-0.977-7.071-2.929c-3.905-3.905-3.906-10.237,0-14.143l48.333-48.334    c3.905-3.904,10.237-3.904,14.142,0c3.905,3.905,3.906,10.237,0,14.143l-48.333,48.334    C138.469,206.866,135.91,207.843,133.351,207.843z" fill="#444B54"/>
</g>
</g>
</svg>