<?xml version="1.0" encoding="iso-8859-1"?>
<!-- Uploaded to: SVG Repo, www.svgrepo.com, Generator: SVG Repo Mixer Tools -->
<svg height="800px" width="800px" version="1.1" id="Layer_1" xmlns="http://www.w3.org/2000/svg" xmlns:xlink="http://www.w3.org/1999/xlink" 
	 viewBox="0 0 512 512" xml:space="preserve">
<path style="fill:#DBDDDD;" d="M240.194,410.139c-84.992,0-154.139-69.146-154.139-154.139s69.146-154.139,154.139-154.139
	S394.334,171.007,394.334,256S325.187,410.139,240.194,410.139z"/>
<g style="opacity:0.2;">
	<path style="fill:#231F20;" d="M111.567,256c0-80.697,62.337-147.1,141.383-153.608c-4.207-0.346-8.459-0.531-12.755-0.531
		c-84.992,0-154.139,69.146-154.139,154.139s69.146,154.139,154.139,154.139c4.295,0,8.548-0.185,12.755-0.531
		C173.904,403.1,111.567,336.697,111.567,256z"/>
</g>
<path style="fill:#53CAF9;" d="M341.086,324.175c13.196-19.468,20.911-42.937,20.911-68.175c0-67.163-54.64-121.802-121.803-121.802
	c-67.161,0-121.802,54.64-121.802,121.802s54.641,121.802,121.802,121.802c33.502,0,63.888-13.595,85.93-35.559"/>
<circle style="fill:#AAE6F9;" cx="239.455" cy="259.87" r="15.074"/>
<g>
	<path style="fill:#8AACAD;" d="M136.722,78.964v62.887c27.373-24.836,63.686-39.99,103.472-39.99s76.1,15.154,103.473,39.99V78.964
		"/>
	<path style="fill:#8AACAD;" d="M240.194,410.139c-39.786,0-76.099-15.154-103.473-39.99v62.887h206.945v-62.887
		C316.295,394.985,279.982,410.139,240.194,410.139z"/>
</g>
<g>
	<path style="fill:#547475;" d="M162.196,78.964h-25.474V21.019c0-7.143,5.792-12.935,12.935-12.935h181.076
		c7.143,0,12.935,5.792,12.935,12.935v57.945H186.628"/>
	<path style="fill:#547475;" d="M330.733,8.084H149.658c-7.143,0-12.935,5.792-12.935,12.935v57.945v62.887
		c27.373-24.836,63.686-39.99,103.473-39.99s76.1,15.154,103.473,39.99V78.964V21.019C343.668,13.876,337.875,8.084,330.733,8.084z"
		/>
	<path style="fill:#547475;" d="M343.668,433.036v57.945c0,7.143-5.792,12.935-12.935,12.935H149.658
		c-7.143,0-12.935-5.792-12.935-12.935v-57.945H343.668z"/>
</g>
<g style="opacity:0.2;">
	<path style="fill:#231F20;" d="M143.951,256c0-62.847,47.846-114.725,109.024-121.133c-4.202-0.44-8.464-0.669-12.781-0.669
		c-67.161,0-121.802,54.64-121.802,121.802s54.641,121.802,121.802,121.802c4.316,0,8.578-0.23,12.778-0.669
		C191.796,370.725,143.951,318.847,143.951,256z"/>
</g>
<path style="fill:#B7B6B3;" d="M413.011,232.565h-20.455c1.171,7.643,1.779,15.47,1.779,23.435c0,7.966-0.608,15.79-1.779,23.433
	h20.455c7.145,0,12.935-5.792,12.935-12.935V245.5C425.946,238.356,420.156,232.565,413.011,232.565z"/>
<g style="opacity:0.2;">
	<path style="fill:#231F20;" d="M162.186,78.964V21.019c0-7.143,5.792-12.935,12.935-12.935h-25.464
		c-7.143,0-12.935,5.792-12.935,12.935v57.945v62.887c7.803-7.08,16.334-13.368,25.464-18.749V78.964z"/>
</g>
<g style="opacity:0.2;">
	<path style="fill:#231F20;" d="M162.186,433.036v57.945c0,7.143,5.792,12.935,12.935,12.935h-25.464
		c-7.143,0-12.935-5.792-12.935-12.935v-57.945v-62.887c7.803,7.08,16.334,13.368,25.464,18.748V433.036z"/>
</g>
<g>
	<path style="fill:#231F20;" d="M240.194,126.114c-71.62,0-129.886,58.267-129.886,129.886s58.268,129.886,129.886,129.886
		c34.554,0,67.097-13.465,91.636-37.917c3.163-3.152,3.171-8.27,0.021-11.432c-3.151-3.165-8.27-3.173-11.433-0.02
		c-21.487,21.41-49.978,33.201-80.223,33.201c-62.704,0-113.718-51.014-113.718-113.718s51.015-113.718,113.718-113.718
		c62.705,0,113.719,51.014,113.719,113.718c0,22.794-6.75,44.801-19.519,63.639c-2.505,3.696-1.54,8.722,2.156,11.227
		c3.695,2.505,8.721,1.54,11.227-2.156c14.591-21.527,22.304-46.67,22.304-72.71C370.082,184.38,311.815,126.114,240.194,126.114z"
		/>
	<path style="fill:#231F20;" d="M413.011,224.481h-13.675c-6.639-33.575-23.663-63.459-47.584-86.149V78.964V21.019
		C351.752,9.429,342.323,0,330.733,0H149.658c-11.59,0-21.019,9.429-21.019,21.019v57.945v59.369
		C97.452,167.916,77.971,209.724,77.971,256s19.48,88.084,50.666,117.667v59.369v57.944c0,11.59,9.429,21.019,21.019,21.019h181.076
		c11.59,0,21.019-9.429,21.019-21.019v-57.945v-59.368c23.921-22.69,40.946-52.574,47.584-86.15h13.675
		c11.59,0,21.019-9.429,21.019-21.019V245.5C434.03,233.911,424.6,224.481,413.011,224.481z M144.806,124.855V87.049h17.39
		c4.465,0,8.084-3.618,8.084-8.084c0-4.466-3.62-8.084-8.084-8.084h-17.39V21.019c0-2.674,2.176-4.851,4.851-4.851h181.076
		c2.674,0,4.851,2.176,4.851,4.851V70.88H186.628c-4.465,0-8.084,3.618-8.084,8.084c0,4.466,3.62,8.084,8.084,8.084h148.954v37.806
		c-0.345-0.251-0.694-0.495-1.041-0.744c-0.293-0.21-0.585-0.42-0.88-0.628c-0.753-0.534-1.512-1.058-2.274-1.578
		c-0.248-0.169-0.494-0.341-0.743-0.509c-1.005-0.677-2.014-1.344-3.032-1.997c-0.135-0.086-0.272-0.169-0.407-0.255
		c-0.861-0.55-1.728-1.091-2.599-1.623c-0.407-0.249-0.818-0.493-1.228-0.738c-0.597-0.358-1.196-0.714-1.798-1.064
		c-0.49-0.286-0.983-0.568-1.477-0.849c-0.514-0.292-1.03-0.58-1.547-0.866c-0.551-0.305-1.102-0.611-1.657-0.91
		c-0.402-0.217-0.806-0.427-1.209-0.639c-2.348-1.24-4.728-2.423-7.141-3.548c-0.184-0.086-0.369-0.174-0.553-0.259
		c-0.845-0.39-1.694-0.773-2.547-1.149c-0.13-0.057-0.262-0.115-0.392-0.172c-13.198-5.78-27.305-9.851-42.044-11.936
		c-0.247-0.034-0.495-0.07-0.742-0.105c-0.844-0.115-1.688-0.225-2.536-0.328c-0.369-0.045-0.738-0.085-1.107-0.127
		c-0.79-0.089-1.58-0.181-2.374-0.26c-1.075-0.107-2.151-0.203-3.23-0.288c-0.535-0.042-1.071-0.074-1.607-0.112
		c-0.734-0.051-1.469-0.099-2.205-0.14c-0.507-0.028-1.013-0.052-1.521-0.075c-0.82-0.038-1.643-0.068-2.465-0.094
		c-0.424-0.013-0.847-0.028-1.272-0.038c-1.251-0.029-2.505-0.047-3.76-0.047c-1.255,0-2.508,0.019-3.76,0.047
		c-0.425,0.01-0.848,0.025-1.272,0.038c-0.822,0.026-1.644,0.056-2.464,0.094c-0.508,0.023-1.015,0.047-1.523,0.075
		c-0.735,0.041-1.469,0.089-2.202,0.14c-0.537,0.037-1.075,0.07-1.609,0.112c-1.056,0.084-2.111,0.178-3.164,0.281
		c-0.818,0.081-1.632,0.174-2.447,0.266c-0.365,0.042-0.731,0.082-1.096,0.126c-0.85,0.102-1.697,0.213-2.543,0.329
		c-0.245,0.033-0.488,0.068-0.733,0.102c-14.745,2.085-28.857,6.157-42.058,11.94c-0.125,0.055-0.251,0.11-0.376,0.165
		c-0.857,0.377-1.71,0.761-2.558,1.153c-0.182,0.084-0.362,0.169-0.544,0.254c-2.414,1.126-4.796,2.31-7.144,3.549
		c-0.405,0.213-0.812,0.425-1.215,0.642c-0.552,0.298-1.101,0.601-1.648,0.905c-0.522,0.289-1.042,0.579-1.562,0.874
		c-0.488,0.278-0.975,0.557-1.462,0.841c-0.609,0.355-1.215,0.715-1.819,1.077c-0.403,0.241-0.807,0.482-1.208,0.728
		c-0.894,0.546-1.782,1.102-2.666,1.665c-0.112,0.071-0.225,0.14-0.337,0.212c-1.024,0.658-2.04,1.329-3.05,2.009
		c-0.234,0.157-0.466,0.319-0.698,0.479c-0.779,0.531-1.555,1.068-2.326,1.614c-0.279,0.197-0.557,0.398-0.835,0.596
		C145.518,124.347,145.16,124.597,144.806,124.855z M335.584,490.981c0,2.674-2.176,4.851-4.851,4.851H149.658
		c-2.674,0-4.851-2.176-4.851-4.851V441.12h190.777V490.981z M335.584,387.145v37.806H144.807v-37.806
		c0.352,0.257,0.709,0.506,1.064,0.76c0.28,0.202,0.561,0.402,0.843,0.601c0.769,0.544,1.542,1.08,2.321,1.609
		c0.234,0.16,0.467,0.322,0.702,0.481c1.01,0.68,2.024,1.352,3.048,2.008c0.119,0.075,0.238,0.149,0.357,0.224
		c0.876,0.559,1.758,1.111,2.645,1.652c0.404,0.247,0.812,0.489,1.218,0.733c0.601,0.36,1.204,0.719,1.81,1.071
		c0.487,0.284,0.975,0.564,1.465,0.843c0.517,0.294,1.038,0.584,1.559,0.872c0.55,0.305,1.099,0.61,1.653,0.909
		c0.398,0.215,0.799,0.421,1.198,0.633c2.353,1.243,4.74,2.428,7.158,3.558c0.181,0.084,0.362,0.17,0.544,0.254
		c0.848,0.391,1.7,0.775,2.556,1.152c0.127,0.056,0.253,0.111,0.38,0.167c13.201,5.782,27.313,9.854,42.057,11.939
		c0.244,0.035,0.487,0.069,0.732,0.102c0.846,0.115,1.693,0.226,2.543,0.329c0.365,0.044,0.731,0.084,1.096,0.126
		c0.815,0.093,1.629,0.185,2.447,0.266c1.053,0.105,2.107,0.198,3.164,0.281c0.536,0.042,1.072,0.074,1.609,0.112
		c0.733,0.051,1.467,0.099,2.202,0.14c0.507,0.028,1.014,0.053,1.523,0.075c0.82,0.038,1.642,0.068,2.464,0.094
		c0.424,0.013,0.847,0.028,1.272,0.038c1.251,0.029,2.505,0.047,3.76,0.047c1.255,0,2.508-0.019,3.76-0.047
		c0.425-0.01,0.847-0.025,1.272-0.038c0.822-0.026,1.644-0.056,2.465-0.094c0.508-0.024,1.014-0.047,1.521-0.075
		c0.736-0.041,1.471-0.089,2.205-0.14c0.536-0.037,1.072-0.069,1.607-0.112c1.079-0.085,2.156-0.181,3.23-0.288
		c0.793-0.079,1.583-0.169,2.374-0.26c0.369-0.042,0.738-0.082,1.107-0.127c0.847-0.102,1.692-0.212,2.536-0.328
		c0.247-0.033,0.494-0.069,0.742-0.105c14.739-2.084,28.846-6.155,42.042-11.934c0.133-0.058,0.265-0.115,0.398-0.175
		c0.853-0.376,1.701-0.758,2.545-1.148c0.184-0.085,0.369-0.172,0.553-0.259c2.419-1.129,4.804-2.314,7.156-3.557
		c0.398-0.21,0.797-0.416,1.192-0.63c0.556-0.3,1.109-0.607,1.662-0.913c0.516-0.286,1.032-0.572,1.545-0.864
		c0.495-0.281,0.988-0.565,1.481-0.852c0.598-0.348,1.194-0.702,1.788-1.058c0.413-0.247,0.827-0.493,1.237-0.744
		c0.864-0.528,1.724-1.066,2.578-1.61c0.141-0.091,0.286-0.178,0.427-0.268c1.016-0.652,2.025-1.319,3.029-1.995
		c0.25-0.168,0.497-0.341,0.746-0.511c0.76-0.518,1.517-1.042,2.268-1.574c0.296-0.21,0.592-0.421,0.887-0.634
		C334.892,387.638,335.24,387.395,335.584,387.145z M338.29,364.118c-0.017,0.016-0.038,0.028-0.056,0.043
		c-4.983,4.522-10.239,8.665-15.722,12.419c-0.086,0.058-0.17,0.12-0.255,0.178c-0.811,0.552-1.627,1.093-2.447,1.628
		c-0.132,0.085-0.261,0.172-0.391,0.258c-0.807,0.523-1.62,1.036-2.437,1.541c-0.142,0.088-0.285,0.179-0.428,0.267
		c-0.821,0.506-1.648,1-2.478,1.49c-0.138,0.081-0.275,0.164-0.413,0.245c-0.849,0.497-1.705,0.983-2.563,1.462
		c-0.115,0.064-0.23,0.129-0.344,0.193c-0.89,0.494-1.786,0.977-2.686,1.451c-0.078,0.041-0.155,0.082-0.233,0.123
		c-0.94,0.493-1.885,0.977-2.836,1.448c-0.031,0.015-0.061,0.031-0.093,0.046c-12.96,6.426-26.82,10.893-41.155,13.235
		c-0.011,0.001-0.02,0.003-0.031,0.005c-1.016,0.166-2.035,0.318-3.056,0.462c-0.16,0.023-0.319,0.045-0.479,0.067
		c-0.913,0.126-1.828,0.243-2.745,0.351c-0.28,0.033-0.562,0.065-0.843,0.097c-0.822,0.093-1.646,0.179-2.472,0.259
		c-0.398,0.038-0.795,0.072-1.193,0.107c-0.732,0.064-1.464,0.125-2.197,0.179c-0.517,0.037-1.037,0.067-1.556,0.099
		c-0.634,0.039-1.268,0.08-1.902,0.11c-0.679,0.032-1.36,0.055-2.042,0.078c-0.49,0.017-0.981,0.039-1.472,0.051
		c-1.187,0.029-2.376,0.045-3.569,0.045s-2.382-0.016-3.569-0.045c-0.492-0.012-0.983-0.035-1.473-0.052
		c-0.68-0.023-1.361-0.045-2.039-0.078c-0.636-0.031-1.271-0.071-1.906-0.111c-0.517-0.031-1.036-0.061-1.552-0.099
		c-0.735-0.053-1.468-0.114-2.201-0.179c-0.397-0.035-0.793-0.068-1.188-0.106c-0.827-0.079-1.652-0.166-2.477-0.259
		c-0.279-0.031-0.557-0.063-0.836-0.096c-0.919-0.109-1.838-0.225-2.753-0.352c-0.156-0.022-0.312-0.044-0.468-0.066
		c-1.025-0.144-2.048-0.298-3.068-0.465c-0.005-0.001-0.011-0.002-0.016-0.002c-14.338-2.341-28.204-6.81-41.167-13.239
		c-0.028-0.014-0.057-0.028-0.085-0.042c-0.952-0.473-1.899-0.957-2.841-1.451c-0.077-0.04-0.152-0.081-0.229-0.121
		c-0.901-0.474-1.797-0.958-2.688-1.452c-0.115-0.065-0.231-0.129-0.347-0.194c-0.857-0.478-1.71-0.963-2.557-1.457
		c-0.143-0.084-0.287-0.169-0.43-0.254c-0.824-0.485-1.645-0.977-2.46-1.478c-0.153-0.095-0.305-0.192-0.458-0.287
		c-0.805-0.499-1.607-1.005-2.403-1.52c-0.149-0.097-0.296-0.196-0.445-0.293c-0.801-0.523-1.6-1.051-2.392-1.591
		c-0.113-0.078-0.224-0.156-0.337-0.234c-0.827-0.567-1.649-1.138-2.465-1.722c-0.033-0.024-0.067-0.05-0.101-0.073
		c-4.537-3.255-8.908-6.782-13.089-10.575c-0.014-0.013-0.03-0.022-0.044-0.035C112.66,337.389,94.14,298.817,94.14,256
		c0-42.802,18.507-81.364,47.94-108.101c0.024-0.022,0.05-0.039,0.073-0.061c4.185-3.797,8.562-7.33,13.105-10.587
		c0.028-0.019,0.055-0.04,0.082-0.06c0.817-0.585,1.642-1.159,2.471-1.727c0.112-0.077,0.222-0.155,0.334-0.232
		c0.794-0.541,1.595-1.071,2.398-1.595c0.146-0.095,0.29-0.193,0.437-0.288c0.795-0.515,1.596-1.02,2.4-1.519
		c0.155-0.096,0.309-0.194,0.465-0.29c0.816-0.502,1.636-0.994,2.461-1.479c0.141-0.083,0.282-0.168,0.424-0.251
		c0.849-0.496,1.704-0.982,2.562-1.461c0.114-0.064,0.229-0.128,0.343-0.192c0.891-0.494,1.788-0.978,2.689-1.453
		c0.077-0.04,0.152-0.081,0.229-0.121c0.942-0.494,1.89-0.978,2.841-1.451c0.028-0.014,0.057-0.028,0.085-0.042
		c12.964-6.429,26.829-10.896,41.167-13.239c0.005-0.001,0.011-0.002,0.016-0.002c1.021-0.167,2.045-0.32,3.071-0.465
		c0.154-0.022,0.307-0.044,0.461-0.065c0.918-0.127,1.838-0.244,2.759-0.354c0.276-0.032,0.553-0.064,0.83-0.095
		c0.826-0.093,1.651-0.18,2.479-0.259c0.396-0.038,0.792-0.071,1.188-0.106c0.733-0.064,1.466-0.126,2.201-0.179
		c0.516-0.037,1.035-0.067,1.552-0.099c0.635-0.039,1.27-0.08,1.906-0.111c0.678-0.032,1.359-0.055,2.039-0.078
		c0.492-0.017,0.982-0.039,1.473-0.052c1.187-0.029,2.376-0.045,3.569-0.045c1.193,0,2.382,0.016,3.569,0.045
		c0.492,0.012,0.982,0.034,1.472,0.051c0.681,0.024,1.362,0.045,2.042,0.078c0.635,0.031,1.269,0.071,1.902,0.11
		c0.52,0.031,1.039,0.061,1.556,0.099c0.733,0.053,1.465,0.114,2.197,0.179c0.398,0.034,0.797,0.068,1.193,0.107
		c0.826,0.079,1.65,0.166,2.474,0.259c0.279,0.031,0.558,0.064,0.838,0.096c0.918,0.109,1.836,0.225,2.752,0.351
		c0.157,0.022,0.315,0.044,0.472,0.067c1.022,0.144,2.042,0.298,3.059,0.464c0.011,0.002,0.02,0.003,0.031,0.005
		c14.335,2.342,28.196,6.809,41.154,13.235c0.031,0.015,0.061,0.031,0.093,0.046c0.95,0.472,1.895,0.955,2.836,1.448
		c0.078,0.041,0.155,0.082,0.233,0.123c0.9,0.474,1.797,0.958,2.687,1.451c0.114,0.063,0.226,0.127,0.341,0.191
		c0.86,0.48,1.717,0.967,2.569,1.464c0.136,0.08,0.272,0.161,0.407,0.241c0.831,0.489,1.658,0.984,2.48,1.491
		c0.146,0.089,0.289,0.181,0.433,0.271c0.816,0.506,1.629,1.018,2.435,1.54c0.128,0.083,0.255,0.169,0.383,0.252
		c0.822,0.537,1.642,1.079,2.454,1.633c0.085,0.057,0.168,0.117,0.252,0.175c5.484,3.755,10.74,7.899,15.725,12.422
		c0.017,0.016,0.038,0.028,0.056,0.044c24.249,22.021,41.087,52.067,46.273,85.899c0,0.003,0,0.006,0.001,0.01
		c0.252,1.645,0.467,3.302,0.663,4.962c0.042,0.356,0.083,0.712,0.123,1.069c0.368,3.324,0.621,6.671,0.762,10.022
		c0.016,0.382,0.03,0.764,0.044,1.147c0.057,1.671,0.095,3.341,0.095,5.01s-0.039,3.34-0.095,5.011
		c-0.013,0.383-0.028,0.764-0.044,1.146c-0.14,3.352-0.395,6.701-0.762,10.027c-0.039,0.354-0.08,0.706-0.122,1.058
		c-0.196,1.662-0.411,3.32-0.664,4.967c-0.001,0.004-0.001,0.009-0.001,0.012C379.377,312.053,362.54,342.097,338.29,364.118z
		 M417.862,266.499c0,2.674-2.176,4.851-4.851,4.851h-11.315c0.038-0.401,0.065-0.803,0.099-1.203
		c0.066-0.755,0.132-1.508,0.186-2.265c0.044-0.605,0.078-1.209,0.115-1.815c0.043-0.707,0.091-1.413,0.125-2.122
		c0.036-0.741,0.058-1.48,0.085-2.22c0.021-0.577,0.047-1.152,0.061-1.731c0.032-1.331,0.051-2.662,0.051-3.993
		s-0.018-2.661-0.051-3.993c-0.014-0.577-0.041-1.149-0.061-1.724c-0.026-0.743-0.049-1.486-0.085-2.229
		c-0.034-0.706-0.081-1.409-0.124-2.113c-0.038-0.609-0.072-1.217-0.116-1.826c-0.055-0.752-0.121-1.5-0.185-2.25
		c-0.036-0.405-0.063-0.812-0.1-1.217h11.315c2.674,0,4.851,2.176,4.851,4.851L417.862,266.499L417.862,266.499z"/>
	<path style="fill:#231F20;" d="M239.453,157.992c-4.465,0-8.084,3.618-8.084,8.084V238.2c-8.789,3.29-15.074,11.751-15.074,21.674
		c0,12.77,10.389,23.159,23.159,23.159c9.923,0,18.383-6.286,21.674-15.074h48.058c4.465,0,8.084-3.618,8.084-8.084
		c0-4.466-3.62-8.084-8.084-8.084h-48.058c-2.347-6.268-7.322-11.244-13.59-13.59v-72.123
		C247.537,161.612,243.917,157.992,239.453,157.992z"/>
</g>
</svg>